<mxfile host="app.diagrams.net" modified="2024-03-11T21:29:40.766Z" agent="Mozilla/5.0 (Macintosh; Intel Mac OS X 10_15_7) AppleWebKit/605.1.15 (KHTML, like Gecko) Version/17.0 Safari/605.1.15" version="24.0.5" etag="JEgfOVmruTu_x9JyE0y4" type="github">
  <diagram name="Page-1" id="IZ08nhm5XuakUKvOCBa3">
    <mxGraphModel>
      <root>
        <mxCell id="0" />
        <mxCell id="1" parent="0" />
      </root>
    </mxGraphModel>
  </diagram>
</mxfile>
